<svg xmlns="http://www.w3.org/2000/svg" viewBox="0 0 379.27 218.78"><defs><style>.cls-1,.cls-10,.cls-8,.cls-9{fill:#ed1c24;}.cls-2,.cls-3,.cls-4,.cls-5,.cls-6,.cls-7{fill:#355973;}.cls-3,.cls-9{opacity:0.75;}.cls-4{opacity:0.55;}.cls-5{opacity:0.35;}.cls-6{opacity:0.25;}.cls-7{opacity:0.85;}.cls-8{opacity:0.5;}.cls-10{opacity:0.9;}</style></defs><title>Fichier 3</title><g id="Calque_2" data-name="Calque 2"><g id="Calque_5" data-name="Calque 5"><path class="cls-1" d="M58.44,143.08h3.09v4.8h-.82l-.2-1.17A2.36,2.36,0,0,1,58.29,148a2.77,2.77,0,0,1-2.42-1.25,5.9,5.9,0,0,1-.87-3.41,6.52,6.52,0,0,1,.86-3.58,2.94,2.94,0,0,1,2.65-1.33c1.65,0,2.65.94,3,2.82l-1.38.34a2.85,2.85,0,0,0-.65-1.54,1.49,1.49,0,0,0-1-.35c-1.23,0-1.85,1.17-1.85,3.51s.63,3.53,1.9,3.53c1,0,1.57-.81,1.57-2.42H58.44Z"/><path class="cls-1" d="M63,141h1.24v1.53c.38-1.11,1-1.67,1.71-1.67l.26,0v1.47l-.29,0c-1,0-1.51.68-1.51,2v3.48H63Z"/><path class="cls-1" d="M72.07,144.33c0,2.44-.91,3.65-2.71,3.65a2.38,2.38,0,0,1-2-.88,4.29,4.29,0,0,1-.71-2.7q0-3.59,2.7-3.58a2.43,2.43,0,0,1,2,.87A4.12,4.12,0,0,1,72.07,144.33Zm-1.51.07a4.09,4.09,0,0,0-.32-2,1,1,0,0,0-.86-.54c-.79,0-1.19.84-1.19,2.51a4.77,4.77,0,0,0,.28,1.9,1,1,0,0,0,1.81,0A4.81,4.81,0,0,0,70.56,144.4Z"/><path class="cls-1" d="M73.35,141h1.41v4.35a3.18,3.18,0,0,0,.15,1.21c.1.21.32.31.66.31a.89.89,0,0,0,.88-.55,5.71,5.71,0,0,0,.25-2V141h1.41v6.84h-1.3v-1A1.82,1.82,0,0,1,75.07,148a1.77,1.77,0,0,1-1-.25,1.42,1.42,0,0,1-.56-.73,5.65,5.65,0,0,1-.17-1.65Z"/><path class="cls-1" d="M79.78,141h1.3v1.13a1.75,1.75,0,0,1,1.68-1.24,2,2,0,0,1,1.67.9,4.47,4.47,0,0,1,.64,2.58,5.27,5.27,0,0,1-.58,2.54,1.9,1.9,0,0,1-1.79,1.05,1.72,1.72,0,0,1-1.52-.84v3h-1.4Zm1.4,4a4.47,4.47,0,0,0,.1,1,1.29,1.29,0,0,0,.4.63,1,1,0,0,0,.69.26c.8,0,1.19-.84,1.19-2.53s-.39-2.44-1.17-2.44a1,1,0,0,0-.86.5,2.46,2.46,0,0,0-.35,1.42Z"/><path class="cls-1" d="M91.35,144.61H87.49a3.11,3.11,0,0,0,.37,1.84,1.16,1.16,0,0,0,.94.47c.63,0,1-.43,1.2-1.28l1.29.17a2.6,2.6,0,0,1-4.51,1.29,4,4,0,0,1-.73-2.6,4.34,4.34,0,0,1,.74-2.72,2.4,2.4,0,0,1,2-1,2.28,2.28,0,0,1,1.47.48,2.65,2.65,0,0,1,.84,1.26A7.48,7.48,0,0,1,91.35,144.61Zm-1.44-1c0-1.21-.39-1.81-1.18-1.81s-1.14.6-1.21,1.81Z"/><path class="cls-1" d="M98.65,138.58h1.41v9.24h-1.3v-1a1.72,1.72,0,0,1-1.69,1.16,1.9,1.9,0,0,1-1.73-1,5,5,0,0,1-.57-2.54,4.68,4.68,0,0,1,.63-2.62,2,2,0,0,1,1.7-.94,1.57,1.57,0,0,1,1.55.91Zm0,5.21a2.16,2.16,0,0,0-.39-1.47,1.15,1.15,0,0,0-.82-.42q-1.17,0-1.17,2.4c0,1.71.39,2.57,1.18,2.57a1.07,1.07,0,0,0,.83-.43,2.24,2.24,0,0,0,.37-1.48Z"/><path class="cls-1" d="M106.68,144.61h-3.87a3.1,3.1,0,0,0,.38,1.84,1.16,1.16,0,0,0,.94.47c.63,0,1-.43,1.19-1.28l1.3.17a2.6,2.6,0,0,1-4.51,1.29,4,4,0,0,1-.74-2.6,4.34,4.34,0,0,1,.75-2.72,2.38,2.38,0,0,1,2-1,2.23,2.23,0,0,1,1.46.48,2.52,2.52,0,0,1,.84,1.26A7.43,7.43,0,0,1,106.68,144.61Zm-1.44-1c0-1.21-.4-1.81-1.18-1.81s-1.14.6-1.21,1.81Z"/><path class="cls-1" d="M112,142.58l-1.1.3c-.21-.69-.59-1-1.16-1a.82.82,0,0,0-.87.85.71.71,0,0,0,.24.59,4.32,4.32,0,0,0,1.12.47,4.33,4.33,0,0,1,1.55.81,1.67,1.67,0,0,1,.47,1.26,2,2,0,0,1-.68,1.53,2.56,2.56,0,0,1-1.82.62,2.18,2.18,0,0,1-2.47-2l1.2-.23a1.26,1.26,0,0,0,1.31,1.18,1.1,1.1,0,0,0,.81-.27.89.89,0,0,0,.27-.64.86.86,0,0,0-.18-.51,2.22,2.22,0,0,0-1-.53,7,7,0,0,1-1.22-.48,1.82,1.82,0,0,1-.94-1.6,2,2,0,0,1,.64-1.49,2.29,2.29,0,0,1,1.64-.61A2.13,2.13,0,0,1,112,142.58Z"/><path class="cls-1" d="M115.92,138.58h2.79a5.83,5.83,0,0,1,1.6.17,1.69,1.69,0,0,1,.93.76,2.57,2.57,0,0,1,.38,1.42,2,2,0,0,1-1.37,2,2.21,2.21,0,0,1,1.65,2.32,2.61,2.61,0,0,1-.65,1.78,3.22,3.22,0,0,1-2.5.77h-2.83Zm1.49,3.83h1a1.76,1.76,0,0,0,1.34-.37,1.45,1.45,0,0,0,.33-1,1.19,1.19,0,0,0-.37-1,1.82,1.82,0,0,0-1.15-.3h-1.12Zm0,4.18h1.23c1.13,0,1.69-.5,1.69-1.49a1.67,1.67,0,0,0-.36-1,1.8,1.8,0,0,0-1.46-.46h-1.1Z"/><path class="cls-1" d="M124.86,140.06h-1.48v-1.49h1.48Zm-1.45.92h1.41v6.84h-1.41Z"/><path class="cls-1" d="M131.52,144.33c0,2.44-.9,3.65-2.7,3.65a2.37,2.37,0,0,1-2-.88,4.23,4.23,0,0,1-.72-2.7q0-3.59,2.71-3.58a2.4,2.4,0,0,1,2,.87A4.12,4.12,0,0,1,131.52,144.33Zm-1.5.07a4.22,4.22,0,0,0-.32-2,1,1,0,0,0-.87-.54c-.79,0-1.18.84-1.18,2.51a5,5,0,0,0,.27,1.9,1,1,0,0,0,1.82,0A4.81,4.81,0,0,0,130,144.4Z"/><path class="cls-1" d="M132.86,138.58h1.41v9.24h-1.41Z"/><path class="cls-1" d="M141,144.33c0,2.44-.9,3.65-2.7,3.65a2.37,2.37,0,0,1-2-.88,4.23,4.23,0,0,1-.71-2.7q0-3.59,2.7-3.58a2.4,2.4,0,0,1,2,.87A4.12,4.12,0,0,1,141,144.33Zm-1.5.07a4.22,4.22,0,0,0-.32-2,1,1,0,0,0-.87-.54c-.79,0-1.18.84-1.18,2.51a5,5,0,0,0,.27,1.9,1,1,0,0,0,1.82,0A4.81,4.81,0,0,0,139.46,144.4Z"/><path class="cls-1" d="M147.61,139.89v1a1.53,1.53,0,0,0-.33,0c-.41,0-.66.25-.74.75a2.26,2.26,0,0,1,.52,1.47,2.1,2.1,0,0,1-.65,1.56,2.35,2.35,0,0,1-1.73.64,3,3,0,0,1-.86-.13c-.35.13-.52.33-.52.6a.43.43,0,0,0,.28.45,7.41,7.41,0,0,0,1.45.16,7.84,7.84,0,0,1,1.53.19,1.45,1.45,0,0,1,.82.55,1.83,1.83,0,0,1,.31,1.09,1.77,1.77,0,0,1-.81,1.58,4.1,4.1,0,0,1-2.29.54,3.65,3.65,0,0,1-2.09-.47,1.47,1.47,0,0,1-.66-1.25,1.29,1.29,0,0,1,1-1.32,1.23,1.23,0,0,1-.74-1.11,1.5,1.5,0,0,1,1-1.38,2,2,0,0,1-.88-1.75,2.12,2.12,0,0,1,.67-1.62,2.48,2.48,0,0,1,1.73-.62,2.84,2.84,0,0,1,1.29.3,1.69,1.69,0,0,1,.41-1,1.27,1.27,0,0,1,.88-.27Zm-3.91,7.64a.94.94,0,0,0-.59.87.78.78,0,0,0,.38.72,2.6,2.6,0,0,0,1.26.23c1.08,0,1.62-.31,1.62-.94a.65.65,0,0,0-.3-.63,3,3,0,0,0-1.22-.2Zm1.9-4.44c0-.9-.31-1.34-.92-1.34s-1,.45-1,1.35.32,1.31,1,1.31S145.6,144,145.6,143.09Z"/><path class="cls-1" d="M149.88,140.06H148.4v-1.49h1.48Zm-1.45.92h1.41v6.84h-1.41Z"/><path class="cls-1" d="M155.61,142.58l-1.1.3c-.2-.69-.59-1-1.16-1a.82.82,0,0,0-.87.85.68.68,0,0,0,.25.59,4.2,4.2,0,0,0,1.11.47,4.24,4.24,0,0,1,1.55.81,1.64,1.64,0,0,1,.47,1.26,2,2,0,0,1-.67,1.53,2.57,2.57,0,0,1-1.83.62,2.17,2.17,0,0,1-2.46-2l1.2-.23a1.24,1.24,0,0,0,1.3,1.18,1.11,1.11,0,0,0,.82-.27.92.92,0,0,0,.26-.64.86.86,0,0,0-.18-.51,2.16,2.16,0,0,0-1-.53,6.84,6.84,0,0,1-1.21-.48,1.81,1.81,0,0,1-.68-.64,1.87,1.87,0,0,1-.26-1,2,2,0,0,1,.63-1.49,2.33,2.33,0,0,1,1.65-.61A2.13,2.13,0,0,1,155.61,142.58Z"/><path class="cls-1" d="M157.3,139.2l1.28-.12V141h1.3v1.14h-1.3v3a8.07,8.07,0,0,0,0,1.06.69.69,0,0,0,.24.43,1.1,1.1,0,0,0,.68.16,4.4,4.4,0,0,0,.57-.05v1.13a5.22,5.22,0,0,1-1.06.12,2.06,2.06,0,0,1-1.21-.3,1.41,1.41,0,0,1-.54-.84,8.89,8.89,0,0,1-.11-1.61v-3.11h-.89V141h.93Z"/><path class="cls-1" d="M165.86,144.61H162a3.11,3.11,0,0,0,.37,1.84,1.17,1.17,0,0,0,.94.47c.63,0,1-.43,1.2-1.28l1.29.17a2.59,2.59,0,0,1-4.5,1.29,3.93,3.93,0,0,1-.74-2.6,4.4,4.4,0,0,1,.74-2.72,2.4,2.4,0,0,1,2-1,2.28,2.28,0,0,1,1.47.48,2.52,2.52,0,0,1,.84,1.26A7.48,7.48,0,0,1,165.86,144.61Zm-1.44-1c0-1.21-.39-1.81-1.18-1.81s-1.13.6-1.21,1.81Z"/><path class="cls-1" d="M171.14,142.58l-1.1.3c-.2-.69-.59-1-1.16-1a.82.82,0,0,0-.87.85.68.68,0,0,0,.25.59,4.2,4.2,0,0,0,1.11.47,4.16,4.16,0,0,1,1.55.81,1.64,1.64,0,0,1,.47,1.26,2,2,0,0,1-.67,1.53,2.57,2.57,0,0,1-1.83.62,2.17,2.17,0,0,1-2.46-2l1.2-.23a1.24,1.24,0,0,0,1.3,1.18,1.11,1.11,0,0,0,.82-.27A.92.92,0,0,0,170,146a.86.86,0,0,0-.18-.51,2.16,2.16,0,0,0-1-.53,6.84,6.84,0,0,1-1.21-.48,1.81,1.81,0,0,1-.68-.64,1.87,1.87,0,0,1-.26-1,2,2,0,0,1,.63-1.49,2.33,2.33,0,0,1,1.65-.61A2.13,2.13,0,0,1,171.14,142.58Z"/><path class="cls-1" d="M175.07,138.58h2.26l1.85,6.66,1.89-6.66h2.17v9.24H181.8v-7.88l-2.19,7.88H178.5l-2.15-7.89v7.89h-1.28Z"/><path class="cls-1" d="M190,144.33c0,2.44-.91,3.65-2.71,3.65a2.38,2.38,0,0,1-2-.88,4.29,4.29,0,0,1-.71-2.7q0-3.59,2.7-3.58a2.4,2.4,0,0,1,2,.87A4.11,4.11,0,0,1,190,144.33Zm-1.51.07a4.09,4.09,0,0,0-.32-2,1,1,0,0,0-.86-.54c-.79,0-1.19.84-1.19,2.51a4.77,4.77,0,0,0,.28,1.9,1,1,0,0,0,1.81,0A4.81,4.81,0,0,0,188.49,144.4Z"/><path class="cls-1" d="M191.33,138.58h1.41v9.24h-1.41Z"/><path class="cls-1" d="M199.36,144.61H195.5a3.1,3.1,0,0,0,.38,1.84,1.16,1.16,0,0,0,.94.47c.63,0,1-.43,1.19-1.28l1.29.17a2.59,2.59,0,0,1-4.5,1.29,4,4,0,0,1-.74-2.6,4.4,4.4,0,0,1,.74-2.72,2.4,2.4,0,0,1,2-1,2.28,2.28,0,0,1,1.47.48,2.52,2.52,0,0,1,.84,1.26A7.48,7.48,0,0,1,199.36,144.61Zm-1.44-1c0-1.21-.39-1.81-1.17-1.81s-1.14.6-1.22,1.81Zm-2.21-4,2.17-1.9.73.92-2.39,1.51Z"/><path class="cls-1" d="M205.27,143.28l-1.36.15a2.42,2.42,0,0,0-.35-1.19.83.83,0,0,0-.69-.3.94.94,0,0,0-.91.58,5,5,0,0,0-.28,2c0,1.51.4,2.27,1.19,2.27.62,0,1-.49,1-1.48l1.36.12c-.19,1.68-1,2.52-2.5,2.52a2.17,2.17,0,0,1-1.94-.94,4.7,4.7,0,0,1-.64-2.62,4.42,4.42,0,0,1,.69-2.68,2.33,2.33,0,0,1,2-.92Q205,140.82,205.27,143.28Z"/><path class="cls-1" d="M206.15,141h1.4v4.35a3.18,3.18,0,0,0,.15,1.21c.1.21.32.31.66.31a.88.88,0,0,0,.88-.55,5.43,5.43,0,0,0,.26-2V141h1.4v6.84h-1.3v-1a1.93,1.93,0,0,1-2.73.94,1.4,1.4,0,0,1-.55-.73,5.32,5.32,0,0,1-.17-1.65Z"/><path class="cls-1" d="M212.58,138.58H214v9.24h-1.41Z"/><path class="cls-1" d="M216.92,142.92l-1.36-.17a2,2,0,0,1,.84-1.42,2.88,2.88,0,0,1,1.73-.51,2.58,2.58,0,0,1,1.47.37,1.56,1.56,0,0,1,.69.88,5.85,5.85,0,0,1,.14,1.53v2.33a9.47,9.47,0,0,0,.12,1.89h-1.33a5.29,5.29,0,0,1-.09-1.14,2,2,0,0,1-1.91,1.3,1.84,1.84,0,0,1-1.39-.53,1.94,1.94,0,0,1-.52-1.44,2.22,2.22,0,0,1,.76-1.77,4.19,4.19,0,0,1,2.66-.65h.3v-.28a2.29,2.29,0,0,0-.22-1.1.84.84,0,0,0-.79-.37C217.41,141.85,217,142.21,216.92,142.92Zm2.11,1.57-.42,0q-1.83,0-1.83,1.44c0,.7.3,1,.91,1a1.12,1.12,0,0,0,.93-.57,2.65,2.65,0,0,0,.41-1.56Z"/><path class="cls-1" d="M223.46,140.06H222v-1.49h1.48ZM222,141h1.4v6.84H222Z"/><path class="cls-1" d="M225.09,141h1.23v1.53c.38-1.11,1-1.67,1.71-1.67l.26,0v1.47l-.28,0c-1,0-1.52.68-1.52,2v3.48h-1.4Z"/><path class="cls-1" d="M233.83,144.61H230a3.1,3.1,0,0,0,.38,1.84,1.16,1.16,0,0,0,.94.47c.63,0,1-.43,1.19-1.28l1.29.17a2.59,2.59,0,0,1-4.5,1.29,4,4,0,0,1-.74-2.6,4.34,4.34,0,0,1,.75-2.72,2.38,2.38,0,0,1,2-1,2.23,2.23,0,0,1,1.46.48,2.52,2.52,0,0,1,.84,1.26A7.83,7.83,0,0,1,233.83,144.61Zm-1.45-1c0-1.21-.39-1.81-1.17-1.81s-1.14.6-1.21,1.81Z"/><path class="cls-1" d="M239.11,142.58l-1.1.3c-.21-.69-.59-1-1.16-1a.82.82,0,0,0-.87.85.71.71,0,0,0,.24.59,4.15,4.15,0,0,0,1.12.47,4.18,4.18,0,0,1,1.54.81,1.64,1.64,0,0,1,.48,1.26,2,2,0,0,1-.68,1.53,2.56,2.56,0,0,1-1.82.62,2.18,2.18,0,0,1-2.47-2l1.2-.23A1.25,1.25,0,0,0,236.9,147a1.1,1.1,0,0,0,.81-.27A.89.89,0,0,0,238,146a.86.86,0,0,0-.18-.51,2.27,2.27,0,0,0-1-.53,7.17,7.17,0,0,1-1.21-.48,1.82,1.82,0,0,1-.94-1.6,2,2,0,0,1,.64-1.49,2.29,2.29,0,0,1,1.64-.61A2.14,2.14,0,0,1,239.11,142.58Z"/><path class="cls-2" d="M246.56,138.58H248v9.24h-1.3v-1a1.72,1.72,0,0,1-1.69,1.16,1.89,1.89,0,0,1-1.73-1,5,5,0,0,1-.58-2.54,4.67,4.67,0,0,1,.64-2.62,2,2,0,0,1,1.7-.94,1.57,1.57,0,0,1,1.55.91Zm0,5.21a2.16,2.16,0,0,0-.39-1.47,1.15,1.15,0,0,0-.83-.42q-1.17,0-1.17,2.4c0,1.71.4,2.57,1.19,2.57a1.09,1.09,0,0,0,.83-.43,2.24,2.24,0,0,0,.37-1.48Z"/><path class="cls-2" d="M254.58,144.61h-3.86a3.1,3.1,0,0,0,.38,1.84,1.16,1.16,0,0,0,.94.47c.63,0,1-.43,1.19-1.28l1.29.17a2.59,2.59,0,0,1-4.5,1.29,4,4,0,0,1-.74-2.6,4.34,4.34,0,0,1,.75-2.72,2.36,2.36,0,0,1,2-1,2.24,2.24,0,0,1,1.47.48,2.52,2.52,0,0,1,.84,1.26A7.48,7.48,0,0,1,254.58,144.61Zm-1.44-1c0-1.21-.39-1.81-1.17-1.81s-1.14.6-1.21,1.81Z"/><path class="cls-2" d="M259.87,142.58l-1.11.3c-.2-.69-.58-1-1.15-1a.82.82,0,0,0-.87.85.71.71,0,0,0,.24.59,4.2,4.2,0,0,0,1.11.47,4.16,4.16,0,0,1,1.55.81,1.64,1.64,0,0,1,.48,1.26,2,2,0,0,1-.68,1.53,2.57,2.57,0,0,1-1.83.62,2.18,2.18,0,0,1-2.46-2l1.2-.23a1.25,1.25,0,0,0,1.3,1.18,1.11,1.11,0,0,0,.82-.27.89.89,0,0,0,.27-.64.81.81,0,0,0-.19-.51,2.16,2.16,0,0,0-1-.53,7.17,7.17,0,0,1-1.21-.48,1.82,1.82,0,0,1-.94-1.6,2,2,0,0,1,.64-1.49,2.29,2.29,0,0,1,1.64-.61A2.14,2.14,0,0,1,259.87,142.58Z"/><path class="cls-2" d="M263.82,138.58h1.53v3.83h2.72v-3.83h1.53v9.24h-1.53V143.7h-2.72v4.12h-1.53Z"/><path class="cls-2" d="M276.28,144.61h-3.86a3.1,3.1,0,0,0,.38,1.84,1.16,1.16,0,0,0,.94.47c.63,0,1-.43,1.19-1.28l1.29.17a2.59,2.59,0,0,1-4.5,1.29,4,4,0,0,1-.74-2.6,4.4,4.4,0,0,1,.74-2.72,2.4,2.4,0,0,1,2-1,2.28,2.28,0,0,1,1.47.48,2.52,2.52,0,0,1,.84,1.26A7.48,7.48,0,0,1,276.28,144.61Zm-1.44-1c0-1.21-.39-1.81-1.17-1.81s-1.14.6-1.21,1.81Zm-2.21-4,2.17-1.9.73.92-2.38,1.51Z"/><path class="cls-2" d="M277.45,141h1.3V142a1.73,1.73,0,0,1,1.68-1.21,1.45,1.45,0,0,1,1.57,1.27,1.74,1.74,0,0,1,1.73-1.27,1.84,1.84,0,0,1,1,.27,1.41,1.41,0,0,1,.58.72,5.71,5.71,0,0,1,.16,1.68v4.33h-1.4v-4.21a3.45,3.45,0,0,0-.17-1.31.66.66,0,0,0-.67-.34c-.71,0-1.07.62-1.07,1.86v4h-1.41v-4.16a5.52,5.52,0,0,0-.07-1.15.74.74,0,0,0-.26-.4.8.8,0,0,0-.5-.15.9.9,0,0,0-.84.44,3.09,3.09,0,0,0-.25,1.45v4h-1.41Z"/><path class="cls-2" d="M292.17,144.33c0,2.44-.91,3.65-2.71,3.65a2.38,2.38,0,0,1-2-.88,4.29,4.29,0,0,1-.71-2.7q0-3.59,2.7-3.58a2.4,2.4,0,0,1,1.95.87A4.11,4.11,0,0,1,292.17,144.33Zm-1.51.07a4.09,4.09,0,0,0-.32-2,1,1,0,0,0-.86-.54c-.79,0-1.19.84-1.19,2.51a4.77,4.77,0,0,0,.28,1.9,1,1,0,0,0,1.81,0A4.81,4.81,0,0,0,290.66,144.4Z"/><path class="cls-2" d="M293.5,141h1.3v1.13a1.75,1.75,0,0,1,1.68-1.24,2,2,0,0,1,1.67.9,4.39,4.39,0,0,1,.64,2.58,5.27,5.27,0,0,1-.58,2.54,1.9,1.9,0,0,1-1.79,1.05,1.72,1.72,0,0,1-1.52-.84v3h-1.4Zm1.4,4a4.47,4.47,0,0,0,.1,1,1.29,1.29,0,0,0,.4.63,1,1,0,0,0,.69.26c.8,0,1.2-.84,1.2-2.53s-.39-2.44-1.17-2.44a1,1,0,0,0-.87.5,2.46,2.46,0,0,0-.35,1.42Z"/><path class="cls-2" d="M301.38,142.92l-1.36-.17a2,2,0,0,1,.84-1.42,2.88,2.88,0,0,1,1.73-.51,2.58,2.58,0,0,1,1.47.37,1.56,1.56,0,0,1,.69.88,5.76,5.76,0,0,1,.15,1.53v2.33a9.47,9.47,0,0,0,.12,1.89h-1.34a6.23,6.23,0,0,1-.08-1.14,2.05,2.05,0,0,1-1.92,1.3,1.84,1.84,0,0,1-1.39-.53,1.94,1.94,0,0,1-.52-1.44,2.22,2.22,0,0,1,.76-1.77,4.19,4.19,0,0,1,2.66-.65h.3v-.28a2.29,2.29,0,0,0-.22-1.1.84.84,0,0,0-.79-.37C301.87,141.85,301.5,142.21,301.38,142.92Zm2.11,1.57-.41,0c-1.23,0-1.84.48-1.84,1.44,0,.7.31,1,.91,1a1.15,1.15,0,0,0,.94-.57,2.73,2.73,0,0,0,.4-1.56Z"/><path class="cls-2" d="M306.73,139.2l1.27-.12V141h1.3v1.14H308v3a8.07,8.07,0,0,0,0,1.06.74.74,0,0,0,.24.43,1.1,1.1,0,0,0,.68.16,4.13,4.13,0,0,0,.57-.05v1.13a5.14,5.14,0,0,1-1.06.12,2.08,2.08,0,0,1-1.21-.3,1.35,1.35,0,0,1-.53-.84,7.89,7.89,0,0,1-.12-1.61v-3.11h-.88V141h.92Z"/><path class="cls-2" d="M310.25,138.58h1.41v3.31a1.67,1.67,0,0,1,1.63-1.07,1.76,1.76,0,0,1,1,.27,1.48,1.48,0,0,1,.56.72,6.21,6.21,0,0,1,.16,1.7v4.31H313.6v-4.3a2.23,2.23,0,0,0-.24-1.32.85.85,0,0,0-.61-.24c-.73,0-1.09.65-1.09,1.95v3.91h-1.41Z"/><path class="cls-2" d="M318.07,140.06h-1.48v-1.49h1.48Zm-1.45.92H318v6.84h-1.41Z"/><path class="cls-2" d="M324.66,144.61H320.8a3.11,3.11,0,0,0,.37,1.84,1.16,1.16,0,0,0,.94.47c.63,0,1-.43,1.2-1.28l1.29.17a2.6,2.6,0,0,1-4.51,1.29,4,4,0,0,1-.73-2.6,4.34,4.34,0,0,1,.74-2.72,2.4,2.4,0,0,1,2-1,2.28,2.28,0,0,1,1.47.48,2.65,2.65,0,0,1,.84,1.26A7.48,7.48,0,0,1,324.66,144.61Zm-1.44-1c0-1.21-.39-1.81-1.18-1.81s-1.14.6-1.21,1.81Z"/><path class="cls-2" d="M329.94,142.58l-1.1.3c-.2-.69-.59-1-1.16-1a.82.82,0,0,0-.87.85.71.71,0,0,0,.24.59,4.49,4.49,0,0,0,1.12.47,4.24,4.24,0,0,1,1.55.81,1.67,1.67,0,0,1,.47,1.26,2,2,0,0,1-.67,1.53,2.59,2.59,0,0,1-1.83.62,2.17,2.17,0,0,1-2.46-2l1.19-.23a1.26,1.26,0,0,0,1.31,1.18,1.08,1.08,0,0,0,.81-.27.89.89,0,0,0,.27-.64.86.86,0,0,0-.18-.51,2.16,2.16,0,0,0-1-.53,7.34,7.34,0,0,1-1.22-.48,1.86,1.86,0,0,1-.67-.64,1.78,1.78,0,0,1-.26-1,2,2,0,0,1,.63-1.49,2.32,2.32,0,0,1,1.65-.61A2.13,2.13,0,0,1,329.94,142.58Z"/><path class="cls-2" d="M333.86,138.58h2.27l1.84,6.66,1.89-6.66H342v9.24H340.6v-7.88l-2.19,7.88H337.3l-2.16-7.89v7.89h-1.28Z"/><path class="cls-2" d="M345,142.92l-1.36-.17a2,2,0,0,1,.84-1.42,2.88,2.88,0,0,1,1.73-.51,2.58,2.58,0,0,1,1.47.37,1.56,1.56,0,0,1,.69.88,5.85,5.85,0,0,1,.14,1.53v2.33a9.47,9.47,0,0,0,.12,1.89h-1.33a5.29,5.29,0,0,1-.09-1.14,2,2,0,0,1-1.91,1.3,1.84,1.84,0,0,1-1.39-.53,1.94,1.94,0,0,1-.52-1.44,2.22,2.22,0,0,1,.76-1.77,4.19,4.19,0,0,1,2.66-.65h.3v-.28a2.29,2.29,0,0,0-.22-1.1.84.84,0,0,0-.79-.37C345.52,141.85,345.15,142.21,345,142.92Zm2.11,1.57-.42,0q-1.83,0-1.83,1.44c0,.7.3,1,.91,1a1.12,1.12,0,0,0,.93-.57,2.65,2.65,0,0,0,.41-1.56Z"/><path class="cls-2" d="M350.13,138.58h1.41v9.24h-1.41Z"/><path class="cls-2" d="M354.64,140.06h-1.48v-1.49h1.48Zm-1.44.92h1.4v6.84h-1.4Z"/><path class="cls-2" d="M361.58,139.89v1a1.47,1.47,0,0,0-.33,0c-.41,0-.66.25-.74.75a2.26,2.26,0,0,1,.52,1.47,2.13,2.13,0,0,1-.64,1.56,2.39,2.39,0,0,1-1.74.64,3,3,0,0,1-.86-.13c-.34.13-.52.33-.52.6a.44.44,0,0,0,.28.45,7.41,7.41,0,0,0,1.45.16,7.63,7.63,0,0,1,1.53.19,1.42,1.42,0,0,1,.82.55,2,2,0,0,1-.5,2.67,4.08,4.08,0,0,1-2.29.54,3.67,3.67,0,0,1-2.09-.47,1.47,1.47,0,0,1-.66-1.25,1.29,1.29,0,0,1,1-1.32,1.25,1.25,0,0,1-.74-1.11,1.49,1.49,0,0,1,1-1.38,2,2,0,0,1-.88-1.75,2.08,2.08,0,0,1,.67-1.62,2.44,2.44,0,0,1,1.72-.62,2.84,2.84,0,0,1,1.29.3,1.69,1.69,0,0,1,.41-1,1.27,1.27,0,0,1,.88-.27Zm-3.91,7.64a.93.93,0,0,0-.58.87.77.77,0,0,0,.37.72,2.63,2.63,0,0,0,1.26.23c1.08,0,1.63-.31,1.63-.94a.66.66,0,0,0-.31-.63,3,3,0,0,0-1.22-.2Zm1.9-4.44c0-.9-.3-1.34-.92-1.34s-1,.45-1,1.35.32,1.31,1,1.31S359.57,144,359.57,143.09Z"/><path class="cls-2" d="M362.4,141h1.3V142a1.71,1.71,0,0,1,1.69-1.22,1.76,1.76,0,0,1,1.12.33,1.41,1.41,0,0,1,.53.8,6.36,6.36,0,0,1,.12,1.46v4.41h-1.41v-4.33a3,3,0,0,0-.16-1.21c-.1-.22-.32-.32-.66-.32a1,1,0,0,0-.83.41,3.09,3.09,0,0,0-.29,1.62v3.83H362.4Z"/><path class="cls-2" d="M373.74,144.61h-3.86a3.11,3.11,0,0,0,.37,1.84,1.16,1.16,0,0,0,.94.47c.63,0,1-.43,1.2-1.28l1.29.17a2.6,2.6,0,0,1-4.51,1.29,4,4,0,0,1-.73-2.6,4.34,4.34,0,0,1,.74-2.72,2.4,2.4,0,0,1,2-1,2.28,2.28,0,0,1,1.47.48,2.57,2.57,0,0,1,.83,1.26A7.43,7.43,0,0,1,373.74,144.61Zm-1.44-1c0-1.21-.39-1.81-1.18-1.81s-1.14.6-1.21,1.81Z"/><path class="cls-2" d="M379,142.58l-1.1.3c-.2-.69-.59-1-1.16-1a.82.82,0,0,0-.87.85.71.71,0,0,0,.24.59,4.32,4.32,0,0,0,1.12.47,4.24,4.24,0,0,1,1.55.81,1.67,1.67,0,0,1,.47,1.26,2,2,0,0,1-.68,1.53,2.56,2.56,0,0,1-1.82.62,2.17,2.17,0,0,1-2.46-2l1.19-.23a1.26,1.26,0,0,0,1.31,1.18,1.08,1.08,0,0,0,.81-.27.89.89,0,0,0,.27-.64.86.86,0,0,0-.18-.51,2.16,2.16,0,0,0-1-.53,7.34,7.34,0,0,1-1.22-.48,1.86,1.86,0,0,1-.67-.64,1.78,1.78,0,0,1-.26-1,2,2,0,0,1,.63-1.49,2.32,2.32,0,0,1,1.65-.61A2.13,2.13,0,0,1,379,142.58Z"/><path class="cls-1" d="M64.3,79.33H99.66c2.85,0,4.28,1.42,4.28,4.28s-1.43,4.27-4.28,4.27H64.3v40.05q0,4.59-4.89,4.59-4.59,0-4.59-4.59V88.8c0-3,.82-5.4,2.45-7S61.24,79.33,64.3,79.33Zm6.22,48.4c0-2.86,1.39-4.28,4.17-4.28H98.54V109.79H86.92c-2.72,0-4.07-1.39-4.07-4.17s1.35-4.08,4.07-4.08h16.31q4.78,0,4.79,4.79v16.2q0,4.59-2.45,7t-7,2.45H74.69Q70.52,132,70.52,127.73Z"/><path class="cls-1" d="M120.14,84.11q0-4.78,4.79-4.78h28.33q7.23,0,11.05,3.72t3.82,10.74a13.37,13.37,0,0,1-1.22,5.71,12.42,12.42,0,0,1-3.67,4.59,14,14,0,0,1,4.79,5.35,15.37,15.37,0,0,1,1.63,7.08q0,7.55-4.12,11.51t-12,4H124.93q-4.79,0-4.79-4.79Zm32.3,39.34c3.06,0,5.11-.51,6.17-1.53s1.58-3,1.58-5.91a7.39,7.39,0,0,0-1.84-5,6.45,6.45,0,0,0-5.19-2.14H139.81q-4.08,0-4.08-4.28c0-2.86,1.36-4.28,4.08-4.28h12.43a6.25,6.25,0,0,0,4.69-1.79,6.1,6.1,0,0,0,1.73-4.43q0-3.66-1.33-4.94T152,87.88H129.62v35.57Z"/><path class="cls-1" d="M178.93,83.5q0-4.48,4.49-4.48h.1a6.37,6.37,0,0,1,5,2.34L208,104.8,226.32,82a6.48,6.48,0,0,1,5.3-2.54h4.68a1,1,0,0,1,1.12,1.12,2.94,2.94,0,0,1-.61,1.83L214,110.71q-2.87,3.57-6,3.57t-5.91-3.47l-13.66-16.4v33.52q0,4.59-4.89,4.59-4.59,0-4.59-4.59Zm49,21.61a8.52,8.52,0,0,1,.35-2.6,6.21,6.21,0,0,1,1.38-2.19l5.71-7c.61-.75,1.05-1.13,1.32-1.13.48,0,.71.62.71,1.84v33.93q0,4.59-4.89,4.59-4.58,0-4.58-4.59Z"/><path class="cls-2" d="M256.58,78.82h.31c3.05,0,4.58,1.52,4.58,4.58v44.43c0,3.12-1.63,4.69-4.89,4.69-3.06,0-4.59-1.57-4.59-4.69V83.4C252,80.34,253.52,78.82,256.58,78.82Zm11,26.18q0-4.17,4.28-4.17h23.85V83.4c0-3.06,1.63-4.58,4.89-4.58,3.06,0,4.58,1.52,4.58,4.58v44.43c0,3.12-1.63,4.69-4.89,4.69-3.05,0-4.58-1.57-4.58-4.69V109.28H271.86C269,109.28,267.58,107.86,267.58,105Z"/><path class="cls-2" d="M319.25,83.5q0-4.48,4.48-4.48h.1a6.36,6.36,0,0,1,5,2.34l19.47,23.44L366.63,82a6.48,6.48,0,0,1,5.3-2.54h4.68a1,1,0,0,1,1.13,1.12,3,3,0,0,1-.62,1.83L354.3,110.71c-1.9,2.38-3.91,3.57-6,3.57s-4-1.16-5.91-3.47l-13.66-16.4v33.52q0,4.59-4.89,4.59-4.57,0-4.58-4.59Zm49,21.61a8.2,8.2,0,0,1,.36-2.6,6,6,0,0,1,1.37-2.19l5.71-7c.61-.75,1.05-1.13,1.32-1.13.48,0,.72.62.72,1.84v33.93q0,4.59-4.9,4.59-4.57,0-4.58-4.59Z"/><circle class="cls-2" cx="74.12" cy="9.42" r="4.77"/><circle class="cls-2" cx="69.58" cy="28.23" r="5.06"/><circle class="cls-3" cx="60.3" cy="42.1" r="5.34"/><circle class="cls-4" cx="48.97" cy="54.94" r="5.72"/><circle class="cls-5" cx="27.3" cy="79.09" r="6.2"/><circle class="cls-6" cx="17.1" cy="97.13" r="6.39"/><circle class="cls-6" cx="14.41" cy="115.09" r="6.49"/><circle class="cls-5" cx="20.98" cy="131.14" r="6.68"/><circle class="cls-4" cx="34.65" cy="144.48" r="6.96"/><circle class="cls-7" cx="48.55" cy="158.26" r="7.25"/><circle class="cls-2" cx="60.2" cy="175.33" r="7.54"/><circle class="cls-2" cx="67.23" cy="197.09" r="8.11"/><circle class="cls-8" cx="44.79" cy="75.71" r="6.84"/><circle class="cls-8" cx="41.22" cy="176.14" r="5.72"/><circle class="cls-9" cx="27.96" cy="187.69" r="4.77"/><circle class="cls-10" cx="20.73" cy="200.31" r="4.29"/><circle class="cls-1" cx="19.59" cy="214.68" r="4.1"/><circle class="cls-9" cx="28.38" cy="57.21" r="8.58"/><circle class="cls-10" cx="16.26" cy="36.58" r="9.54"/><circle class="cls-1" cx="10.49" cy="10.49" r="10.49"/></g></g></svg>